<svg width="62.776" height="21.952" viewBox="0 0 62.776 21.952" xmlns="http://www.w3.org/2000/svg"><g id="svgGroup" stroke-linecap="round" fill-rule="evenodd" font-size="9pt" stroke="#00000000" stroke-width="0.25mm" fill="#1A237E" style="stroke:#00000000;stroke-width:0.25mm;fill:#1A237E"><path d="M 40.404 20.748 L 40.096 21.952 A 29.524 29.524 0 0 1 37.851 21.301 Q 36.811 20.951 35.941 20.554 A 13.565 13.565 0 0 1 34.692 19.908 A 12.678 12.678 0 0 1 33.366 19.017 Q 32.723 18.52 32.249 17.992 A 6.157 6.157 0 0 1 31.71 17.304 A 5.968 5.968 0 0 1 31.069 16.074 A 4.535 4.535 0 0 1 30.772 14.476 Q 30.772 13.048 31.584 11.816 A 6.594 6.594 0 0 1 30.373 10.465 A 7.792 7.792 0 0 1 30.086 10.01 A 4.697 4.697 0 0 1 29.585 8.818 A 3.994 3.994 0 0 1 29.456 7.812 A 2.843 2.843 0 0 1 30.389 5.644 A 3.671 3.671 0 0 1 30.674 5.404 A 3.759 3.759 0 0 1 31.728 4.859 Q 32.718 4.518 34.169 4.484 A 13.945 13.945 0 0 1 34.496 4.48 L 38.276 4.48 L 38.276 2.1 L 28.252 2.1 L 27.3 0.28 L 27.3 0 L 42.812 0 L 43.764 1.82 L 43.764 2.1 L 40.572 2.1 Q 40.572 3.164 40.586 4.326 Q 40.6 5.488 40.6 6.356 L 40.264 6.58 L 35 6.58 A 8.316 8.316 0 0 0 34.039 6.632 Q 33.557 6.688 33.158 6.805 A 3.371 3.371 0 0 0 32.424 7.112 A 1.793 1.793 0 0 0 31.755 7.756 Q 31.556 8.094 31.512 8.536 A 2.607 2.607 0 0 0 31.5 8.792 A 2.338 2.338 0 0 0 31.692 9.71 A 2.813 2.813 0 0 0 31.78 9.898 Q 32.06 10.444 32.424 10.808 Q 33.32 9.996 34.51 9.52 Q 35.7 9.044 37.016 9.044 Q 38.332 9.044 39.242 9.478 Q 40.152 9.912 40.698 10.584 A 4.96 4.96 0 0 1 41.254 11.424 A 4.181 4.181 0 0 1 41.496 11.984 Q 41.711 12.604 41.742 13.122 A 2.897 2.897 0 0 1 41.748 13.3 A 3.235 3.235 0 0 1 40.497 15.867 Q 39.997 16.288 39.297 16.634 A 8.633 8.633 0 0 1 38.808 16.856 L 37.492 14.98 A 6.404 6.404 0 0 0 38.767 14.171 A 5.784 5.784 0 0 0 39.102 13.874 A 2.168 2.168 0 0 0 39.787 12.297 A 2.757 2.757 0 0 0 39.788 12.236 A 1.855 1.855 0 0 0 39.733 11.771 A 1.209 1.209 0 0 0 39.228 11.046 A 1.985 1.985 0 0 0 38.663 10.789 Q 38.402 10.714 38.089 10.685 A 4.425 4.425 0 0 0 37.688 10.668 Q 36.372 10.668 35.322 11.298 A 4.793 4.793 0 0 0 33.848 12.65 A 4.666 4.666 0 0 0 33.67 12.922 A 4.097 4.097 0 0 0 33.128 14.327 A 3.848 3.848 0 0 0 33.068 15.008 A 3.342 3.342 0 0 0 33.269 16.125 Q 33.417 16.543 33.673 16.973 A 5.835 5.835 0 0 0 33.712 17.038 Q 34.356 18.088 35.966 19.04 Q 37.576 19.992 40.404 20.748 Z M 3.92 2.1 L 0.952 2.1 L 0 0.28 L 0 0 L 20.44 0 L 21.392 1.82 L 21.392 2.1 L 18.116 2.1 L 18.172 17.78 L 17.892 17.78 L 15.652 16.324 L 15.764 2.1 L 11.368 2.1 A 5.688 5.688 0 0 1 12.229 3.347 A 6.632 6.632 0 0 1 12.39 3.682 A 4.725 4.725 0 0 1 12.782 5.281 A 5.615 5.615 0 0 1 12.796 5.684 Q 12.796 6.644 12.512 7.479 A 4.982 4.982 0 0 1 12.04 8.484 Q 11.284 9.716 10.108 10.57 Q 8.932 11.424 7.728 11.9 L 12.488 16.744 L 11.06 17.92 L 10.78 17.92 L 6.244 12.32 Q 5.712 12.404 5.264 12.404 A 3.264 3.264 0 0 1 3.913 12.125 A 3.178 3.178 0 0 1 3.542 11.928 A 4.239 4.239 0 0 1 2.819 11.371 A 3.435 3.435 0 0 1 2.338 10.794 A 3.452 3.452 0 0 1 2.109 10.395 Q 2.003 10.176 1.952 9.972 A 1.507 1.507 0 0 1 1.904 9.604 A 0.737 0.737 0 0 1 1.944 9.356 A 0.639 0.639 0 0 1 2.114 9.1 A 0.581 0.581 0 0 1 2.296 8.988 Q 2.469 8.919 2.736 8.907 A 2.593 2.593 0 0 1 2.856 8.904 A 3.452 3.452 0 0 1 3.9 9.072 A 4.448 4.448 0 0 1 4.466 9.296 Q 5.292 9.688 6.02 10.164 A 8.13 8.13 0 0 0 7.51 9.612 A 6.448 6.448 0 0 0 8.68 8.876 A 16.566 16.566 0 0 1 6.64 7.942 Q 4.497 6.761 3.791 5.28 A 3.507 3.507 0 0 1 3.444 3.752 Q 3.444 2.856 3.92 2.1 Z M 53.256 16.744 L 51.828 17.92 L 51.548 17.92 L 46.592 11.872 Q 45.558 10.584 45.033 9.766 A 7.535 7.535 0 0 1 44.744 9.282 A 5.54 5.54 0 0 1 44.498 8.769 Q 44.268 8.212 44.268 7.784 A 0.747 0.747 0 0 1 44.695 7.072 Q 45.049 6.888 45.696 6.888 Q 46.116 6.888 46.858 6.944 Q 47.6 7 48.104 7.056 A 8.895 8.895 0 0 0 48.214 6.354 Q 48.251 6.035 48.273 5.684 A 14.745 14.745 0 0 0 48.286 5.446 A 46.002 46.002 0 0 0 48.312 4.797 Q 48.328 4.284 48.328 3.864 Q 48.328 3.248 48.314 2.842 Q 48.3 2.436 48.272 2.1 L 43.148 2.1 L 42.196 0.28 L 42.196 0 L 61.824 0 L 62.776 1.82 L 62.776 2.1 L 59.5 2.1 L 59.556 17.64 L 59.276 17.64 L 57.036 16.184 L 57.064 10.668 Q 55.916 11.088 54.656 11.088 Q 53.872 11.088 52.64 10.766 A 4.939 4.939 0 0 1 51.75 10.43 Q 50.873 10.008 49.845 9.182 A 15.917 15.917 0 0 1 49.812 9.156 A 2.886 2.886 0 0 1 48.42 10.417 A 4.493 4.493 0 0 1 47.432 10.724 L 53.256 16.744 Z M 28.868 1.82 L 28.868 2.1 L 25.592 2.1 L 25.648 17.78 L 25.368 17.78 L 23.128 16.324 L 23.24 2.1 L 20.776 2.1 L 19.824 0.28 L 19.824 0 L 27.916 0 L 28.868 1.82 Z M 57.092 7.896 L 57.148 2.1 L 50.54 2.1 Q 50.596 2.632 50.61 3.276 A 119.71 119.71 0 0 1 50.616 3.569 Q 50.622 3.885 50.624 4.071 A 13.298 13.298 0 0 1 50.624 4.172 Q 50.624 5.404 50.526 6.412 A 15.87 15.87 0 0 1 50.458 7.004 Q 50.417 7.306 50.368 7.562 A 6.325 6.325 0 0 1 50.26 8.036 Q 50.596 8.232 51.226 8.442 Q 51.856 8.652 52.57 8.792 A 7.572 7.572 0 0 0 53.435 8.912 A 6.311 6.311 0 0 0 53.928 8.932 A 5.308 5.308 0 0 0 55.612 8.668 A 5.027 5.027 0 0 0 55.776 8.61 Q 56.352 8.396 56.744 8.151 A 2.713 2.713 0 0 0 57.092 7.896 Z M 9.548 8.008 Q 10.64 6.664 10.64 4.816 Q 10.64 3.64 10.22 3.01 A 2.59 2.59 0 0 0 9.81 2.527 A 1.996 1.996 0 0 0 9.198 2.142 A 3.516 3.516 0 0 0 8.57 1.956 A 2.823 2.823 0 0 0 8.036 1.904 A 3.126 3.126 0 0 0 7.414 1.962 Q 7.052 2.035 6.781 2.203 A 1.508 1.508 0 0 0 6.328 2.632 A 2.867 2.867 0 0 0 5.927 3.453 A 2.526 2.526 0 0 0 5.824 4.172 A 2.678 2.678 0 0 0 6.216 5.551 A 3.859 3.859 0 0 0 6.692 6.188 A 4.964 4.964 0 0 0 7.411 6.825 Q 8.236 7.435 9.548 8.008 Z" vector-effect="non-scaling-stroke"/></g></svg>